<svg width="800" height="600" xmlns="http://www.w3.org/2000/svg">

 <g>
  <title>Layer 1</title>
  <rect stroke="#ffffff" id="svg_1" height="50" width="796.99994" y="0.5" x="1.50004" fill="#fff"/>
  <ellipse ry="11" rx="12" id="svg_5" cy="26.5" cx="769.5" stroke="#ffffff" fill="#cccccc"/>
  <rect id="svg_6" height="18" width="70" y="14.5" x="19.5" stroke="#ffffff" fill="#cccccc"/>
  <path stroke="#ffffff" id="svg_8" d="m723.5925,18.64884l0,3.66854l3.88878,0l1.90081,8.2719l10.70161,0l3.5088,-12.57687l-16.63689,0l0,0.63633l-3.3631,0l0,0.0001zm8.88555,16.00563c0,1.30227 -0.70685,2.35794 -1.57876,2.35794s-1.57883,-1.05577 -1.57883,-2.35794s0.70685,-2.35784 1.57883,-2.35784s1.57876,1.05567 1.57876,2.35784zm7.3119,0c0,1.30227 -0.70685,2.35794 -1.57876,2.35794s-1.57883,-1.05577 -1.57883,-2.35794s0.70692,-2.35784 1.57883,-2.35784s1.57876,1.05567 1.57876,2.35784z" fill="#cccccc"/>
  <rect stroke="#ffffff" id="svg_9" height="160" width="804.00001" y="223.5" x="-0.50001" fill="#191919"/>
  <rect stroke="#ffffff" id="svg_11" height="146.00001" width="160.00001" y="63.50001" x="28.5" fill="#cccccc"/>
  <rect stroke="#ffffff" id="svg_12" height="149.00001" width="147.99999" y="63.5" x="227.5" fill="#cccccc"/>
  <rect stroke="#ffffff" id="svg_13" height="146" width="136" y="65.50001" x="415.5" fill="#cccccc"/>
  <rect stroke="#ffffff" id="svg_14" height="145" width="127.99999" y="67.50001" x="591.5" fill="#cccccc"/>
  <text style="cursor: move;" xml:space="preserve" text-anchor="start" font-family="Noto Sans JP" font-size="24" stroke-width="0" id="svg_15" y="308.5" x="356.5" stroke="#ffffff" fill="#ffffff">Center Banner</text>
  <rect stroke="#ffffff" id="svg_20" height="146.00001" width="160.00001" y="408.50001" x="29.5" fill="#cccccc"/>
  <rect stroke="#ffffff" id="svg_21" height="149.00001" width="147.99999" y="408.5" x="228.5" fill="#cccccc"/>
  <rect stroke="#ffffff" id="svg_22" height="146" width="136" y="410.50001" x="416.5" fill="#cccccc"/>
  <rect stroke="#ffffff" id="svg_23" height="145" width="127.99999" y="412.50001" x="592.5" fill="#cccccc"/>
 </g>
</svg>